<?xml version="1.0"?>
<svg version="1.1" xmlns="http://www.w3.org/2000/svg" width="250" height="90" style=""><path fill="#d49115" d="M33.144,51.948q3.528,0,3.528,1.332q0,0.288-0.216,0.648q-0.864,1.332-3.132,1.332q-1.476,0-3.024-0.522t-2.34-1.098q-3.348,0.972-5.958,2.988t-3.906,4.572q-0.684,1.368-0.684,2.664q0,2.016,1.674,3.276t4.914,1.26q0.9,0,1.872-0.108q5.724-0.612,9.108-3.672q2.844-2.52,2.844-5.292q0-2.196-2.124-2.196q-2.556,0-5.868,2.736q-0.828,0.684-1.404,1.728t-0.576,2.052t1.008,1.26q0.36,0.144,0.36,0.36q0,0.36-0.72,0.288q-1.728-0.036-1.728-2.268t2.268-4.176q3.096-2.664,6.552-2.664q2.592,0,3.276,1.62q0.288,0.756,0.288,1.512q0,3.348-3.708,6.3q-4.428,3.6-11.232,3.6q-4.212,0-6.66-1.566t-2.448-4.086q0-1.476,0.936-2.952q3.312-5.256,11.304-7.812q-1.188-1.368-1.188-2.916t0.756-2.592q1.476-2.016,4.428-3.312q3.528-1.548,7.056-1.548q2.052,0,3.294,0.666t1.242,2.052t-1.026,2.34t-2.142,0.954t-1.116-0.54q0-0.324,0.468-0.324l0.72,0.108q0.72,0,1.314-0.774t0.594-1.602q0-1.224-1.404-1.8q-0.9-0.36-1.692-0.36t-1.116,0.036q-3.096,0.18-6.048,2.16q-3.456,2.268-3.456,5.112q0,1.044,0.72,1.944q2.304-0.72,4.392-0.72z M29.364,53.244q1.548,1.224,3.564,1.224t2.016-1.116q0-0.504-1.8-0.504t-3.78,0.396z M47.26212,55.224q0.972,0,0.972,0.756q0,0.216-0.108,0.432q-3.24,4.5-3.888,6.804q8.388-8.388,10.188-8.388q0.18-0.036,0.324-0.036q1.008,0,1.008,0.9q0,0.18-0.072,0.36t-1.44,1.944q-1.584,1.872-2.682,3.6t-1.098,2.88t0.504,1.152q1.584,0,5.508-4.356q0.072-0.072,0.252-0.324q0.54-0.648,0.648-0.648t0.108,0.36t-0.504,0.936q-4.464,5.076-6.336,5.076q-1.764,0-1.764-1.944t1.44-4.464l2.304-3.744q-2.448,1.8-4.356,3.942t-3.474,4.158t-1.818,2.016q-0.54,0-0.846-0.45t-0.306-1.116t0.468-1.782t1.188-2.7l-2.16,2.268q-0.792,0.792-0.99,0.792t-0.198-0.234t0.288-0.522q1.332-1.332,2.304-2.556q0.936-1.224,3.852-4.68q0.324-0.432,0.684-0.432z M69.37224,55.692q4.032-6.552,5.616-6.552q0.252,0,0.702,0.162t0.45,0.486q0,0.18-0.18,0.468q-2.88,3.528-4.284,5.292q-4.248,5.364-4.68,7.704q-0.108,0.504-0.108,1.008q0,1.62,1.332,1.62q2.664,0,6.948-4.932q0.36-0.36,0.612-0.414t0.252,0.126t-0.216,0.432q-4.176,5.004-7.416,5.58q-0.18,0.036-0.504,0.036q-1.116,0-1.674-0.774t-0.558-1.674q0-1.008,0.396-2.232l-2.916,2.916q-1.98,1.836-3.114,1.836t-1.89-0.612q-0.9-0.684-0.9-1.908q0-2.628,3.672-6.282t6.732-3.654q1.008,0,1.404,0.54q0.144,0.18,0.324,0.828z M58.75224,64.692q0,1.296,0.9,1.296q1.548,0,5.148-4.248q0.648-0.756,4.32-5.652q-0.252-0.432-0.864-0.432q-2.232,0-5.868,3.402t-3.636,5.634z M86.04636,66.816q-0.18,0.036-0.774,0.036t-1.188-0.468t-0.594-1.206t0.27-1.638t0.378-1.368q-4.14,4.824-6.48,4.824q-1.476,0-1.62-1.836l0-0.252q0-1.548,1.872-4.176q-1.044,0.936-2.124,2.16q-0.144,0.144-0.36,0.144q-0.144,0-0.144-0.18t0.324-0.612l4.968-5.832q0.936-1.08,1.908-1.08t0.972,0.648q0,0.252-0.216,0.468q-1.44,1.332-3.618,4.428t-2.178,4.572q0,0.648,0.432,0.648q1.512,0,4.392-2.988q1.008-1.008,3.744-4.446t3.6-3.438q1.296,0,1.296,1.008q0,0.36-1.512,2.088q-2.052,2.484-3.132,4.05t-1.08,2.538t0.54,0.972q0.252,0,0.576-0.144q2.484-1.08,5.94-5.04q0.216-0.252,0.432-0.252t0.216,0.234t-0.252,0.522q-1.548,1.8-3.636,3.618t-2.952,1.998z M100.20048,66.78q-2.7,0-2.7-2.988q0-1.512,0.792-3.312t1.728-3.024q-0.18,0.036-0.468,0.036q-0.864,0-1.44-1.224l-2.664,3.456q-2.232,2.772-2.592,2.772q-0.18,0-0.18-0.144q0-0.36,0.612-1.044q3.132-3.636,4.428-6.156q0.828-3.132,2.088-3.132q0.828,0,0.828,0.72t-0.9,1.836l-0.864,1.152q0,0.756,1.116,0.756q0.648,0,1.44-0.468l0.936-0.576q0.072-0.036,0.36-0.036t0.612,0.36t0.216,0.648l-2.484,3.132q-2.304,2.952-2.304,4.662t1.584,1.71q1.656,0,4.068-1.764q1.44-1.044,2.628-2.34q1.116-1.296,1.224-1.296q0.252,0,0.252,0.27t-0.324,0.63l-1.152,1.296q-0.972,1.008-2.16,1.944q-2.844,2.124-4.68,2.124z M120.5826,55.836l0.504-0.108q0.396,0,0.756,0.324t0.36,0.504t-2.232,3.474t-2.232,4.59q0,0.108,0.036,0.216q0.18,0.828,0.792,0.828q1.872,0,6.84-6.192q0.108-0.144,0.252-0.144t0.144,0.27t-0.324,0.702q-4.608,6.156-7.02,6.156q-0.324,0-0.612-0.108q-1.584-0.612-1.584-2.376q0-0.612,0.144-1.224l-2.232,2.16q-2.124,1.872-3.078,1.872t-1.818-0.612q-0.972-0.72-0.972-1.908q0-2.628,3.672-6.282t6.732-3.654q1.188,0,1.584,0.828q0.108,0.288,0.18,0.486t0.108,0.198z M109.8186,64.692q0,1.296,0.9,1.296q2.088,0,5.688-4.572l3.816-5.256q-0.288-0.504-0.936-0.504q-2.196,0-5.832,3.402t-3.636,5.634z M130.84872,55.224q0.972,0,0.972,0.756q0,0.216-0.108,0.432q-3.24,4.5-3.888,6.804q8.388-8.388,10.188-8.388q0.18-0.036,0.324-0.036q1.008,0,1.008,0.9q0,0.18-0.072,0.36t-1.44,1.944q-1.584,1.872-2.682,3.6t-1.098,2.88t0.504,1.152q1.584,0,5.508-4.356q0.072-0.072,0.252-0.324q0.54-0.648,0.648-0.648t0.108,0.36t-0.504,0.936q-4.464,5.076-6.336,5.076q-1.764,0-1.764-1.944t1.44-4.464l2.304-3.744q-2.448,1.8-4.356,3.942t-3.474,4.158t-1.818,2.016q-0.54,0-0.846-0.45t-0.306-1.116t0.468-1.782t1.188-2.7l-2.16,2.268q-0.792,0.792-0.99,0.792t-0.198-0.234t0.288-0.522q1.332-1.332,2.304-2.556q0.936-1.224,3.852-4.68q0.324-0.432,0.684-0.432z M143.88684,67.068q-0.396,0-0.72-0.108q-2.304-0.648-2.304-2.592q0-2.52,3.168-5.832t5.688-3.312q0.828,0,1.35,0.45t0.522,1.224t-0.468,1.62t-1.404,0.846t-0.936-0.576q0-0.396,0.486-1.206t0.486-0.864t-0.108-0.054q-1.008,0.108-2.754,1.44t-2.394,2.232l-1.404,2.052q-0.36,0.576-0.522,1.368t-0.162,1.188t0.45,0.9t1.278,0.504q1.8,0,4.464-2.106t4.104-4.014q0.18-0.216,0.432-0.216t0.252,0.144t-0.18,0.36q-1.98,2.628-4.734,4.59t-4.59,1.962z M154.76496,67.068q-0.396,0-0.72-0.108q-2.304-0.648-2.304-2.592q0-2.52,3.168-5.832t5.688-3.312q0.828,0,1.35,0.45t0.522,1.098q0,2.016-3.042,3.852t-4.95,1.836q-0.288,0-0.504-0.072q-0.54,0.972-0.54,2.052q0,1.872,1.782,1.872t4.626-2.412q2.196-1.764,3.744-3.744q0.324-0.432,0.558-0.432t0.234,0.216t-0.288,0.612q-1.944,2.556-4.68,4.536t-4.644,1.98z M161.56896,56.7q0-0.432-0.918-0.432t-2.61,1.404q-2.268,1.872-3.528,3.924q0.216,0.072,0.468,0.072q1.368,0,3.654-1.458t2.862-3.186q0.072-0.18,0.072-0.324z M190.6332,51.948q3.528,0,3.528,1.332q0,0.288-0.216,0.648q-0.864,1.332-3.132,1.332q-1.476,0-3.024-0.522t-2.34-1.098q-3.348,0.972-5.958,2.988t-3.906,4.572q-0.684,1.368-0.684,2.664q0,2.016,1.674,3.276t4.914,1.26q0.9,0,1.872-0.108q5.724-0.612,9.108-3.672q2.844-2.52,2.844-5.292q0-2.196-2.124-2.196q-2.556,0-5.868,2.736q-0.828,0.684-1.404,1.728t-0.576,2.052t1.008,1.26q0.36,0.144,0.36,0.36q0,0.36-0.72,0.288q-1.728-0.036-1.728-2.268t2.268-4.176q3.096-2.664,6.552-2.664q2.592,0,3.276,1.62q0.288,0.756,0.288,1.512q0,3.348-3.708,6.3q-4.428,3.6-11.232,3.6q-4.212,0-6.66-1.566t-2.448-4.086q0-1.476,0.936-2.952q3.312-5.256,11.304-7.812q-1.188-1.368-1.188-2.916t0.756-2.592q1.476-2.016,4.428-3.312q3.528-1.548,7.056-1.548q2.052,0,3.294,0.666t1.242,2.052t-1.026,2.34t-2.142,0.954t-1.116-0.54q0-0.324,0.468-0.324l0.72,0.108q0.72,0,1.314-0.774t0.594-1.602q0-1.224-1.404-1.8q-0.9-0.36-1.692-0.36t-1.116,0.036q-3.096,0.18-6.048,2.16q-3.456,2.268-3.456,5.112q0,1.044,0.72,1.944q2.304-0.72,4.392-0.72z M186.8532,53.244q1.548,1.224,3.564,1.224t2.016-1.116q0-0.504-1.8-0.504t-3.78,0.396z M210.97932,55.62l0.504-0.108q0.468,0,0.738,0.288t0.27,0.45t-0.036,0.36t-1.044,1.818q-1.26,2.196-2.088,3.708q-2.916,5.436-4.464,7.452q-3.312,4.392-6.3,4.392q-1.044,0-1.818-0.882t-0.81-1.962q0.108-0.432,0.324-0.432q0.108,0,0.18,0.252q0.18,0.936,0.684,1.44t1.008,0.504q2.052,0,4.392-2.7q1.548-1.8,3.42-5.256l1.8-3.564l-2.7,2.736q-2.592,2.484-3.546,2.484t-1.818-0.648q-0.972-0.72-0.972-1.908q0-2.628,3.69-6.264t6.714-3.636q1.224,0,1.584,0.792q0.108,0.288,0.18,0.486t0.108,0.198z M200.21532,64.476q0,1.296,0.9,1.296q2.088,0,5.688-4.572l3.816-5.256q-0.216-0.504-0.9-0.504q-2.232,0-5.868,3.438t-3.636,5.598z M222.07344,57.636q0-2.448,1.512-2.448q0.144,0,0.324,0.036q0.612,0.108,0.612,0.936t-0.288,2.088q-0.288,0.936-0.396,1.404q0.108,0.612,0.594,1.566t1.332,0.954t1.89-1.152q0.216-0.252,0.414-0.252t0.216,0.234t-0.27,0.63q-1.116,1.332-2.34,1.332q-1.764,0-2.844-2.592q-1.116,2.556-3.168,4.41t-4.068,1.854q-1.908,0-1.908-2.88q0-2.268,4.23-8.352t6.462-6.084q0.468,0,0.846,0.288t0.378,0.684q0-0.036-0.522,0.54t-2.844,3.096t-4.554,5.544t-2.232,4.68q0,0.432,0.234,0.936t0.774,0.504q1.584,0,3.708-2.448q1.764-2.16,2.16-3.636q-0.252-0.756-0.252-1.872z M230.43156,67.068q-0.396,0-0.72-0.108q-2.304-0.648-2.304-2.592q0-2.52,3.168-5.832t5.688-3.312q0.828,0,1.35,0.45t0.522,1.098q0,2.016-3.042,3.852t-4.95,1.836q-0.288,0-0.504-0.072q-0.54,0.972-0.54,2.052q0,1.872,1.782,1.872t4.626-2.412q2.196-1.764,3.744-3.744q0.324-0.432,0.558-0.432t0.234,0.216t-0.288,0.612q-1.944,2.556-4.68,4.536t-4.644,1.98z M237.23556,56.7q0-0.432-0.918-0.432t-2.61,1.404q-2.268,1.872-3.528,3.924q0.216,0.072,0.468,0.072q1.368,0,3.654-1.458t2.862-3.186q0.072-0.18,0.072-0.324z"/><path fill="#" d=""/></svg>
